<svg width="148" height="45" viewBox="0 0 148 45" fill="none" xmlns="http://www.w3.org/2000/svg">
<g clip-path="url(#clip0_1_16)">
<mask id="mask0_1_16" style="mask-type:luminance" maskUnits="userSpaceOnUse" x="0" y="0" width="32" height="45">
<path d="M31.6191 0H0V45H31.6191V0Z" fill="white"/>
</mask>
<g mask="url(#mask0_1_16)">
<path d="M15.7901 15.7901V1.90937H29.6708V15.7901H15.7901ZM15.7901 15.7901H1.9093V29.6709H15.7901V42.9998H29.6708V29.1191H15.7901V15.7901Z" stroke="black" stroke-width="3.81904" stroke-miterlimit="1.5" stroke-linecap="round" stroke-linejoin="round"/>
</g>
<path d="M40.7189 22.539C40.7189 21.291 40.9889 20.181 41.5289 19.209C42.0689 18.225 42.8189 17.463 43.7789 16.923C44.7509 16.371 45.8489 16.095 47.0729 16.095C48.5729 16.095 49.8569 16.491 50.9249 17.283C51.9929 18.075 52.7069 19.155 53.0669 20.523H49.6829C49.4309 19.995 49.0709 19.593 48.6029 19.317C48.1469 19.041 47.6249 18.903 47.0369 18.903C46.0889 18.903 45.3209 19.233 44.7329 19.893C44.1449 20.553 43.8509 21.435 43.8509 22.539C43.8509 23.643 44.1449 24.525 44.7329 25.185C45.3209 25.845 46.0889 26.175 47.0369 26.175C47.6249 26.175 48.1469 26.037 48.6029 25.761C49.0709 25.485 49.4309 25.083 49.6829 24.555H53.0669C52.7069 25.923 51.9929 27.003 50.9249 27.795C49.8569 28.575 48.5729 28.965 47.0729 28.965C45.8489 28.965 44.7509 28.695 43.7789 28.155C42.8189 27.603 42.0689 26.841 41.5289 25.869C40.9889 24.897 40.7189 23.787 40.7189 22.539ZM61.396 28.875L58.768 24.105H58.03V28.875H54.952V16.239H60.118C61.114 16.239 61.96 16.413 62.656 16.761C63.364 17.109 63.892 17.589 64.24 18.201C64.588 18.801 64.762 19.473 64.762 20.217C64.762 21.057 64.522 21.807 64.042 22.467C63.574 23.127 62.878 23.595 61.954 23.871L64.87 28.875H61.396ZM58.03 21.927H59.938C60.502 21.927 60.922 21.789 61.198 21.513C61.486 21.237 61.63 20.847 61.63 20.343C61.63 19.863 61.486 19.485 61.198 19.209C60.922 18.933 60.502 18.795 59.938 18.795H58.03V21.927ZM72.67 29.001C71.482 29.001 70.39 28.725 69.394 28.173C68.41 27.621 67.624 26.853 67.036 25.869C66.46 24.873 66.172 23.757 66.172 22.521C66.172 21.285 66.46 20.175 67.036 19.191C67.624 18.207 68.41 17.439 69.394 16.887C70.39 16.335 71.482 16.059 72.67 16.059C73.858 16.059 74.944 16.335 75.928 16.887C76.924 17.439 77.704 18.207 78.268 19.191C78.844 20.175 79.132 21.285 79.132 22.521C79.132 23.757 78.844 24.873 78.268 25.869C77.692 26.853 76.912 27.621 75.928 28.173C74.944 28.725 73.858 29.001 72.67 29.001ZM72.67 26.193C73.678 26.193 74.482 25.857 75.082 25.185C75.694 24.513 76 23.625 76 22.521C76 21.405 75.694 20.517 75.082 19.857C74.482 19.185 73.678 18.849 72.67 18.849C71.65 18.849 70.834 19.179 70.222 19.839C69.622 20.499 69.322 21.393 69.322 22.521C69.322 23.637 69.622 24.531 70.222 25.203C70.834 25.863 71.65 26.193 72.67 26.193ZM92.1482 28.875H89.0702L83.9222 21.081V28.875H80.8442V16.239H83.9222L89.0702 24.069V16.239H92.1482V28.875ZM100.355 29.001C99.1675 29.001 98.0755 28.725 97.0795 28.173C96.0955 27.621 95.3095 26.853 94.7215 25.869C94.1455 24.873 93.8575 23.757 93.8575 22.521C93.8575 21.285 94.1455 20.175 94.7215 19.191C95.3095 18.207 96.0955 17.439 97.0795 16.887C98.0755 16.335 99.1675 16.059 100.355 16.059C101.543 16.059 102.63 16.335 103.614 16.887C104.61 17.439 105.389 18.207 105.953 19.191C106.529 20.175 106.817 21.285 106.817 22.521C106.817 23.757 106.529 24.873 105.953 25.869C105.377 26.853 104.597 27.621 103.614 28.173C102.63 28.725 101.543 29.001 100.355 29.001ZM100.355 26.193C101.363 26.193 102.167 25.857 102.767 25.185C103.379 24.513 103.685 23.625 103.685 22.521C103.685 21.405 103.379 20.517 102.767 19.857C102.167 19.185 101.363 18.849 100.355 18.849C99.3355 18.849 98.5195 19.179 97.9075 19.839C97.3075 20.499 97.0075 21.393 97.0075 22.521C97.0075 23.637 97.3075 24.531 97.9075 25.203C98.5195 25.863 99.3355 26.193 100.355 26.193ZM111.608 26.499H115.64V28.875H108.53V16.239H111.608V26.499ZM120.186 16.239V28.875H117.108V16.239H120.186ZM133.721 28.875H130.643L125.495 21.081V28.875H122.417V16.239H125.495L130.643 24.069V16.239H133.721V28.875ZM143.278 28.875L139.03 23.295V28.875H135.952V16.239H139.03V21.783L143.242 16.239H146.86L141.964 22.431L147.04 28.875H143.278Z" fill="black"/>
</g>
<defs>
<clipPath id="clip0_1_16">
<rect width="147.75" height="45" fill="white"/>
</clipPath>
</defs>
</svg>
